<?xml version="1.0" standalone="no"?>
<!DOCTYPE svg PUBLIC "-//W3C//DTD SVG 20010904//EN"
 "http://www.w3.org/TR/2001/REC-SVG-20010904/DTD/svg10.dtd">
<svg version="1.0" xmlns="http://www.w3.org/2000/svg"
 width="96.000000pt" height="96.000000pt" viewBox="0 0 96.000000 96.000000"
 preserveAspectRatio="xMidYMid meet">

<g transform="translate(0.000000,96.000000) scale(0.100000,-0.100000)"
fill="#000000" stroke="none">
<path d="M324 905 c-4 -8 -15 -15 -25 -15 -11 0 -27 -4 -37 -8 -9 -5 -30 -15
-47 -23 -16 -8 -40 -32 -52 -54 -24 -43 -31 -71 -10 -44 20 27 80 59 109 59
25 0 26 -2 21 -42 -3 -24 -13 -51 -21 -61 -16 -18 -17 -18 -23 0 -6 14 -8 11
-9 -12 -1 -16 -4 -39 -6 -50 -3 -11 -8 -44 -11 -73 l-5 -52 -62 2 c-50 3 -61
6 -64 22 -2 10 2 22 10 27 9 6 8 9 -8 9 -20 0 -20 -2 -8 -77 7 -43 13 -86 13
-96 1 -11 5 -15 13 -11 7 4 8 3 4 -4 -11 -18 -26 -14 -26 7 0 19 -25 31 -47
24 -7 -3 -13 -16 -13 -29 0 -17 6 -24 20 -24 16 0 20 -7 20 -35 0 -32 -2 -35
-30 -35 -17 0 -30 -4 -30 -9 0 -16 72 -17 115 -2 41 14 95 9 95 -9 0 -5 -24
-16 -53 -25 -60 -17 -117 -53 -62 -38 59 15 116 9 135 -15 22 -27 26 -27 33
-3 6 25 -2 34 -18 21 -9 -7 -16 -6 -25 5 -7 8 -8 15 -3 15 5 0 17 6 26 13 17
12 17 15 1 65 -20 60 -24 61 -109 32 -69 -24 -65 -23 -65 -7 0 6 36 25 81 40
63 21 84 25 95 16 8 -6 12 -15 9 -19 -3 -4 12 -59 32 -121 20 -63 37 -128 37
-146 2 -28 -2 -32 -39 -44 -22 -7 -53 -11 -68 -10 -15 2 -38 -4 -50 -12 -13
-8 -32 -17 -42 -20 -17 -4 -18 -5 -2 -6 10 0 29 6 42 15 13 8 36 14 52 12 l28
-4 -25 -11 c-14 -7 -20 -12 -13 -12 6 -1 14 -9 16 -18 4 -14 5 -14 6 3 1 16
13 26 47 39 29 11 52 28 65 49 19 32 26 72 10 62 -5 -3 -11 3 -14 13 -3 12 1
22 9 25 22 8 17 46 -8 55 -28 10 -67 126 -67 201 0 122 38 208 111 246 25 13
31 12 60 -6 42 -26 50 -25 87 6 35 29 47 26 100 -29 39 -41 50 -85 51 -200 0
-58 3 -78 13 -75 6 3 15 18 18 34 l7 29 1 -33 c1 -38 -15 -75 -30 -67 -5 4 -9
-6 -9 -22 0 -52 -22 -107 -56 -141 -25 -25 -34 -42 -33 -66 0 -17 3 -25 6 -18
2 6 9 10 14 6 5 -3 9 0 9 5 0 18 20 12 78 -24 32 -19 91 -43 132 -55 41 -11
80 -27 86 -35 14 -19 44 -20 44 -1 0 8 -8 13 -17 12 -10 -2 -27 3 -38 10 -11
6 -35 15 -52 19 -28 6 -33 11 -33 36 0 27 3 29 35 29 56 0 40 18 -19 22 -30 1
-52 -1 -49 -6 8 -13 12 -66 4 -65 -15 1 -45 18 -33 18 20 1 14 70 -9 99 -18
23 -19 27 -5 30 10 2 16 14 16 33 0 19 5 29 15 29 8 0 15 7 15 15 0 11 -12 15
-50 15 -42 0 -50 3 -50 18 0 23 30 52 53 52 11 0 17 8 17 25 0 14 -6 25 -12
25 -15 0 -38 45 -38 72 0 16 10 18 100 18 l100 0 0 30 c0 35 -17 41 -22 8 -2
-15 -10 -23 -23 -23 -14 0 -20 6 -19 23 0 12 -3 22 -8 22 -4 0 -8 -11 -8 -25
0 -18 -5 -25 -19 -25 -11 0 -22 6 -24 13 -4 10 -6 9 -6 0 -1 -7 -10 -13 -22
-13 -45 0 -64 54 -34 97 15 21 29 24 53 10 6 -5 12 -4 12 2 0 5 8 12 18 15 14
4 14 5 -3 4 -41 -1 -45 2 -46 40 l-2 37 -6 -39 c-4 -28 -12 -41 -28 -47 -13
-5 -22 -5 -21 -1 7 25 -94 142 -122 142 -6 0 -10 13 -10 29 0 47 -27 70 -105
86 -91 19 -134 19 -141 0z m-156 -437 c-2 -29 -8 -53 -15 -55 -9 -3 -11 10 -7
49 5 47 4 51 -9 36 -18 -23 -23 -23 -30 2 -4 17 0 20 29 20 l35 0 -3 -52z m42
32 c0 -11 -4 -20 -10 -20 -5 0 -10 9 -10 20 0 11 5 20 10 20 6 0 10 -9 10 -20z
m10 -49 c0 -10 -9 -21 -20 -24 -14 -4 -20 0 -20 12 0 21 9 31 27 31 7 0 13 -8
13 -19z m130 -221 c0 -11 -4 -20 -10 -20 -5 0 -10 2 -10 4 0 2 -3 11 -6 20 -4
11 -1 16 10 16 9 0 16 -8 16 -20z m297 -26 c-3 -4 1 -13 10 -22 14 -14 17 -14
28 2 25 33 49 16 56 -39 3 -28 5 -52 3 -54 -2 -2 -38 18 -132 75 -4 3 31 44
37 44 2 0 2 -3 -2 -6z"/>
<path d="M90 790 c0 -33 4 -60 10 -60 5 0 9 27 9 60 -1 33 -5 60 -10 60 -5 0
-9 -27 -9 -60z"/>
<path d="M881 785 l2 -70 7 60 c5 34 4 64 -1 70 -5 5 -8 -18 -8 -60z"/>
<path d="M150 560 c0 -5 5 -10 11 -10 5 0 7 5 4 10 -3 6 -8 10 -11 10 -2 0 -4
-4 -4 -10z"/>
<path d="M0 513 c0 -29 5 -53 10 -53 6 0 10 9 10 19 0 11 2 25 5 33 3 7 -1 22
-9 33 -14 19 -15 16 -16 -32z"/>
<path d="M312 538 c-8 -10 6 -13 64 -14 41 -1 74 2 74 6 0 21 -121 27 -138 8z"/>
<path d="M528 543 c-41 -11 -13 -20 56 -19 58 1 72 4 64 14 -10 11 -83 15
-120 5z"/>
<path d="M325 469 c-4 -6 -4 -13 -1 -16 3 -4 6 -1 6 5 0 20 17 13 23 -8 6 -25
42 -26 56 -2 10 16 10 15 11 -3 1 -11 4 -14 7 -7 9 22 -18 42 -58 42 -21 0
-41 -5 -44 -11z"/>
<path d="M541 466 c-7 -9 -11 -21 -8 -28 3 -7 6 -4 7 7 1 18 1 19 11 3 14 -24
50 -23 56 2 6 22 18 26 26 10 3 -6 4 -5 3 2 -4 19 -80 22 -95 4z"/>
<path d="M870 410 c0 -27 3 -30 30 -30 27 0 30 3 30 30 0 27 -3 30 -30 30 -27
0 -30 -3 -30 -30z"/>
<path d="M567 315 c-5 -11 -22 -15 -71 -15 -36 0 -76 4 -89 9 -23 9 -24 8 -17
-29 4 -21 19 -53 34 -70 33 -40 34 -63 3 -55 -22 6 -23 4 -18 -27 l5 -33 6 30
c7 30 13 24 23 -20 3 -14 5 -12 6 8 1 31 21 28 21 -2 0 -22 31 -23 44 -1 8 12
11 11 17 -5 6 -16 8 -13 8 13 1 17 5 32 10 32 6 0 12 -15 14 -32 4 -32 4 -32
5 5 2 26 -2 37 -12 37 -20 0 -26 48 -10 79 8 14 14 33 14 42 0 8 5 20 12 27 6
6 9 14 6 17 -3 3 -8 -1 -11 -10z m-76 -25 c33 0 59 -4 59 -10 0 -6 -32 -10
-75 -10 -62 0 -75 3 -75 16 0 11 5 14 16 10 9 -3 42 -6 75 -6z"/>
<path d="M806 279 c-7 -41 -2 -59 15 -59 5 0 9 16 9 35 0 28 4 35 20 35 11 0
20 7 20 15 0 10 -10 15 -29 15 -26 0 -29 -4 -35 -41z"/>
<path d="M890 300 c0 -5 9 -10 20 -10 16 0 20 -7 20 -35 0 -24 5 -35 15 -35
11 0 15 12 15 45 0 45 0 45 -35 45 -19 0 -35 -4 -35 -10z"/>
<path d="M27 273 c-22 -4 -27 -9 -27 -34 0 -19 5 -29 15 -29 10 0 15 -10 15
-30 0 -20 -5 -30 -15 -30 -12 0 -15 -13 -15 -55 0 -53 1 -55 28 -56 27 -1 27
-1 3 -8 -34 -9 -39 -31 -7 -31 19 0 29 7 36 25 7 18 14 23 27 18 14 -5 14 -2
-3 13 -12 10 -27 34 -33 53 -15 45 -14 144 1 159 7 7 10 11 7 11 -2 -1 -16 -4
-32 -6z"/>
<path d="M770 261 c0 -6 5 -13 10 -16 6 -3 10 1 10 9 0 9 -4 16 -10 16 -5 0
-10 -4 -10 -9z"/>
<path d="M842 243 c2 -22 9 -29 32 -31 35 -4 47 7 40 36 -5 17 -14 22 -41 22
-32 0 -34 -2 -31 -27z"/>
<path d="M184 200 c-35 -5 -94 -33 -94 -44 0 -2 18 1 40 6 22 6 38 13 36 17
-2 3 6 6 19 6 13 0 21 -3 19 -6 -2 -4 7 -10 21 -13 38 -10 30 -23 -17 -31 -22
-4 -55 -13 -72 -21 -31 -13 -31 -13 26 -14 34 0 62 -5 70 -13 9 -11 19 -11 40
-3 38 14 38 39 1 25 -16 -5 -47 -6 -73 -1 l-45 8 47 8 c55 8 69 23 42 43 -10
8 -18 16 -16 19 10 13 -7 19 -44 14z"/>
<path d="M382 135 c0 -16 2 -22 5 -12 2 9 2 23 0 30 -3 6 -5 -1 -5 -18z"/>
<path d="M904 115 c-8 -47 0 -65 31 -65 23 0 25 3 25 50 0 46 -2 50 -25 50
-20 0 -25 -6 -31 -35z"/>
<path d="M870 91 c0 -6 5 -13 10 -16 6 -3 10 1 10 9 0 9 -4 16 -10 16 -5 0
-10 -4 -10 -9z"/>
</g>
</svg>
