<?xml version="1.0" standalone="no"?>
<!DOCTYPE svg PUBLIC "-//W3C//DTD SVG 20010904//EN"
 "http://www.w3.org/TR/2001/REC-SVG-20010904/DTD/svg10.dtd">
<svg version="1.0" xmlns="http://www.w3.org/2000/svg"
 width="100.000000pt" height="100.000000pt" viewBox="0 0 100.000000 100.000000"
 preserveAspectRatio="xMidYMid meet">

<g transform="translate(0.000000,100.000000) scale(0.100000,-0.100000)"
fill="#000000" stroke="none">
<path d="M460 990 c-8 -5 -39 -10 -67 -10 l-53 0 0 -39 c0 -33 -5 -42 -40 -66
-22 -15 -49 -42 -60 -59 l-20 -31 0 98 0 97 -110 0 -110 0 0 -490 0 -490 38 0
c21 0 44 6 51 13 11 9 13 9 7 0 -12 -21 1 -15 51 23 49 38 118 73 142 74 7 0
29 -14 49 -31 104 -92 220 -91 327 3 l40 35 43 -18 c57 -25 134 -78 127 -89
-3 -4 24 -8 60 -9 l65 0 0 479 0 480 -135 0 c-113 0 -135 -2 -135 -15 0 -12
-13 -15 -59 -15 -54 0 -62 3 -94 35 -36 36 -84 46 -117 25z m440 -145 l0 -55
-50 0 -50 0 0 55 0 55 50 0 50 0 0 -55z m-461 -95 c49 -12 81 -16 96 -10 13 5
56 15 95 24 113 23 141 2 103 -79 -16 -35 -16 -36 5 -51 82 -57 90 -238 17
-390 -33 -68 -120 -174 -144 -174 -6 0 -11 -5 -11 -11 0 -5 -4 -7 -10 -4 -5 3
-10 1 -10 -5 0 -6 -4 -9 -9 -5 -5 3 -12 2 -15 -3 -4 -7 -111 -9 -111 -2 0 1
-9 3 -19 5 -10 2 -23 10 -27 17 -5 7 -9 9 -9 4 0 -6 -9 0 -20 12 -12 12 -25
22 -30 22 -13 0 -74 96 -107 165 -34 76 -40 152 -19 249 13 55 25 84 47 107
34 36 34 37 14 75 -21 41 -19 63 8 73 25 10 49 7 156 -19z m471 -95 l0 -55
-39 0 c-37 0 -39 2 -45 38 -4 20 -9 45 -12 55 -5 15 2 17 45 17 l51 0 0 -55z
m-740 -246 c0 -5 -4 -7 -10 -4 -16 10 -12 -62 5 -95 9 -17 22 -30 29 -30 8 0
16 -7 20 -15 8 -22 -9 -18 -39 8 -30 26 -48 89 -34 123 9 24 29 33 29 13z
m700 -33 c0 -34 -24 -88 -47 -106 -30 -24 -45 -26 -37 -5 4 8 12 15 20 15 7 0
20 13 29 30 17 33 20 90 4 90 -5 0 -7 5 -3 12 8 12 34 -16 34 -36z m-690 -5
c0 -6 -4 -13 -10 -16 -5 -3 -10 1 -10 9 0 9 5 16 10 16 6 0 10 -4 10 -9z m657
-13 c-3 -8 -6 -5 -6 6 -1 11 2 17 5 13 3 -3 4 -12 1 -19z m-717 -83 l0 -55
-50 0 -50 0 0 55 0 55 50 0 50 0 0 -55z m700 34 c-7 -11 -14 -18 -17 -15 -3 3
0 12 7 21 18 21 23 19 10 -6z m100 -34 l0 -55 -50 0 c-27 0 -50 3 -50 8 1 4
14 23 30 42 17 19 30 40 30 47 0 7 9 13 20 13 18 0 20 -7 20 -55z m-720 24 c0
-6 -4 -7 -10 -4 -5 3 -10 11 -10 16 0 6 5 7 10 4 6 -3 10 -11 10 -16z m-70
-207 c0 -26 -5 -53 -10 -58 -6 -6 -29 -8 -53 -5 -40 6 -42 7 -45 45 -5 59 1
66 58 66 l50 0 0 -48z"/>
<path d="M357 649 c-40 -9 -97 -36 -97 -45 0 -3 6 -2 13 3 6 4 46 10 87 13 58
4 75 8 75 20 0 18 -27 21 -78 9z"/>
<path d="M575 651 c-13 -22 7 -31 65 -31 32 0 70 -4 84 -10 43 -16 29 0 -16
20 -56 24 -124 35 -133 21z"/>
<path d="M310 557 c-20 -10 -25 -21 -27 -52 0 -23 1 -29 4 -15 10 53 64 76
114 50 10 -6 19 -8 19 -6 0 8 -57 36 -72 36 -7 0 -24 -6 -38 -13z"/>
<path d="M618 555 c-16 -9 -28 -18 -28 -21 0 -2 9 0 19 6 51 26 104 3 114 -50
3 -19 5 -16 6 11 0 20 -5 42 -12 48 -24 19 -71 22 -99 6z"/>
<path d="M366 471 c-4 -5 -2 -12 3 -15 5 -4 12 -2 15 3 4 5 2 12 -3 15 -5 4
-12 2 -15 -3z"/>
<path d="M620 471 c0 -6 5 -13 10 -16 6 -3 10 1 10 9 0 9 -4 16 -10 16 -5 0
-10 -4 -10 -9z"/>
<path d="M493 333 c9 -2 23 -2 30 0 6 3 -1 5 -18 5 -16 0 -22 -2 -12 -5z"/>
<path d="M345 250 c88 -92 236 -90 324 4 l24 26 -188 0 -189 0 29 -30z m299
-2 c-29 -32 -114 -61 -161 -54 -38 5 -114 43 -126 63 -3 4 64 8 148 8 142 0
152 -1 139 -17z"/>
<path d="M472 149 c17 -7 38 -7 60 0 30 8 28 9 -27 9 -50 0 -56 -1 -33 -9z"/>
</g>
</svg>
