<?xml version="1.0" standalone="no"?>
<!DOCTYPE svg PUBLIC "-//W3C//DTD SVG 20010904//EN"
 "http://www.w3.org/TR/2001/REC-SVG-20010904/DTD/svg10.dtd">
<svg version="1.0" xmlns="http://www.w3.org/2000/svg"
 width="32.000000pt" height="32.000000pt" viewBox="0 0 32.000000 32.000000"
 preserveAspectRatio="xMidYMid meet">

<g transform="translate(0.000000,32.000000) scale(0.100000,-0.100000)"
fill="#000000" stroke="none">
<path d="M97 293 c-32 -17 -45 -58 -38 -124 1 -5 5 -8 10 -5 5 4 11 0 14 -6 7
-22 18 -2 24 44 7 57 15 64 67 66 40 2 44 0 57 -30 7 -18 19 -39 27 -47 11
-11 12 -9 7 15 -13 58 -17 63 -49 84 -38 23 -79 24 -119 3z"/>
<path d="M251 154 c0 -11 3 -14 6 -6 3 7 2 16 -1 19 -3 4 -6 -2 -5 -13z"/>
<path d="M155 110 c3 -5 8 -10 11 -10 2 0 4 5 4 10 0 6 -5 10 -11 10 -5 0 -7
-4 -4 -10z"/>
<path d="M94 63 c-3 -24 -5 -45 -3 -47 2 -2 34 -6 70 -8 l67 -6 -3 27 c-1 14
1 36 6 48 11 29 -5 39 -34 20 -19 -12 -29 -13 -60 -2 l-36 12 -7 -44z"/>
</g>
</svg>
