<?xml version="1.0" encoding="iso-8859-1"?>
<!-- Generator: Adobe Illustrator 19.0.0, SVG Export Plug-In . SVG Version: 6.00 Build 0)  -->
<svg version="1.1" id="Capa_1" xmlns="http://www.w3.org/2000/svg" xmlns:xlink="http://www.w3.org/1999/xlink" x="0px" y="0px"
	 viewBox="0 0 512 512" style="enable-background:new 0 0 512 512;" xml:space="preserve">
<path style="fill:#FFE082;" d="M401.067,175.531c-1.681-4.541-6.132-7.45-10.965-7.168l-20.501,1.707
	c-3.97-10.031-6.311-20.632-6.933-31.403c0-5.891-4.776-10.667-10.667-10.667c-62.72,0-116.139-42.667-117.333-53.333
	C234.667,68.776,229.891,64,224,64c-5.891,0-10.667,4.776-10.667,10.667c0.523,7.694-2.147,15.264-7.381,20.928
	c-12.595,8.741-27.91,12.67-43.157,11.072c-5.536-0.508-11.011,1.479-14.933,5.419c-8.939,17.632-12.366,37.546-9.835,57.152
	c-9.301-0.896-23.787-3.477-27.136,6.272c-2.876,8.762-4.303,17.935-4.224,27.157c0,29.76,13.184,52.352,30.827,53.333
	c19.2,64.256,65.941,106.667,118.507,106.667S355.2,320.213,374.507,256c17.664-0.96,30.827-23.467,30.827-53.333
	C405.396,193.45,403.955,184.284,401.067,175.531z"/>
<path style="fill:#455A64;" d="M418.88,354.688l-54.869-19.093c-4.019-1.388-8.478-0.256-11.349,2.88
	c-6.699,7.317-13.888,16.277-21.461,25.749c-22.272,27.819-49.92,62.443-75.2,62.443c-25.28,0-52.928-34.624-75.179-62.443
	c-7.552-9.472-14.741-18.432-21.461-25.749c-2.871-3.136-7.33-4.268-11.349-2.88l-54.869,19.093
	C37.4,374.103,0.036,426.649,0,485.675v15.659C0,507.224,4.776,512,10.667,512h490.667c5.891,0,10.667-4.776,10.667-10.667v-15.659
	C511.967,426.655,474.613,374.11,418.88,354.688z"/>
<circle style="fill:#ECEFF1;" cx="208" cy="208" r="26.667"/>
<path style="fill:#607D8B;" d="M208,245.333c-20.619,0-37.333-16.715-37.333-37.333s16.715-37.333,37.333-37.333
	s37.333,16.715,37.333,37.333C245.31,228.609,228.609,245.31,208,245.333z M208,192c-8.837,0-16,7.163-16,16s7.163,16,16,16
	s16-7.163,16-16C223.988,199.168,216.832,192.012,208,192z"/>
<circle style="fill:#ECEFF1;" cx="304" cy="208" r="26.667"/>
<g>
	<path style="fill:#607D8B;" d="M304,245.333c-20.619,0-37.333-16.715-37.333-37.333s16.715-37.333,37.333-37.333
		c20.619,0,37.333,16.715,37.333,37.333C341.31,228.609,324.609,245.31,304,245.333z M304,192c-8.837,0-16,7.163-16,16
		s7.163,16,16,16s16-7.163,16-16C319.988,199.168,312.832,192.012,304,192z"/>
	<path style="fill:#607D8B;" d="M277.333,218.667c-1.854,0.005-3.678-0.472-5.291-1.387c-10.07-5.266-22.08-5.266-32.149,0
		c-5.146,2.868-11.642,1.021-14.51-4.125c-2.839-5.094-1.06-11.523,3.993-14.435c16.638-9.001,36.695-9.001,53.333,0
		c5.126,2.904,6.927,9.413,4.023,14.539C284.817,216.638,281.217,218.71,277.333,218.667z"/>
</g>
<path style="fill:#FFA000;" d="M192,170.667c-5.891,0-10.667-4.776-10.666-10.667c0-1.659,0.387-3.295,1.13-4.778l10.667-21.333
	c1.808-3.609,5.499-5.888,9.536-5.888h14.741l7.701-15.445c2.633-5.272,9.042-7.412,14.315-4.779
	c5.272,2.633,7.412,9.042,4.779,14.315l-10.667,21.333c-1.802,3.617-5.495,5.905-9.536,5.909h-14.741l-7.701,15.445
	C199.745,168.395,196.044,170.675,192,170.667z"/>
<g>
	<path style="fill:#607D8B;" d="M181.333,213.333c-2.103-0.002-4.159-0.625-5.909-1.792l-32-21.333
		c-4.901-3.27-6.224-9.893-2.955-14.795c3.27-4.901,9.893-6.224,14.795-2.955l32,21.333c4.901,3.268,6.225,9.891,2.957,14.792
		C188.24,211.555,184.904,213.338,181.333,213.333z"/>
	<path style="fill:#607D8B;" d="M330.667,213.333c-5.891-0.005-10.663-4.784-10.658-10.675c0.003-3.563,1.785-6.89,4.749-8.866
		l32-21.333c4.901-3.27,11.525-1.947,14.795,2.955s1.947,11.525-2.955,14.795l-32,21.333
		C334.841,212.712,332.777,213.336,330.667,213.333z"/>
</g>
<path style="fill:#455A64;" d="M256,0c-82.436,0.094-149.239,66.898-149.333,149.333c0.099,10.778,1.402,21.511,3.883,32
	c1.08,4.884,5.409,8.361,10.411,8.363c8.96,0.15,17.902,0.862,26.773,2.133c5.822,0.898,11.27-3.094,12.168-8.916
	c0.121-0.784,0.154-1.578,0.099-2.369c-1.964-17.548-1.027-35.3,2.773-52.544c20.921,2.057,41.816-4.153,58.219-17.301
	c2.77-2.756,5.16-5.869,7.104-9.259c31.837,27.799,71.851,44.489,114.005,47.552c2.099,12.598,5.731,24.892,10.816,36.608
	c1.693,3.878,5.518,6.389,9.749,6.4h0.875l28.373-2.347c4.658-0.384,8.524-3.757,9.536-8.32c2.481-10.489,3.783-21.222,3.883-32
	C405.239,66.898,338.436,0.094,256,0z"/>
<path d="M256,362.667c-52.544,0-99.2-42.432-118.592-106.667c-17.621-1.067-30.741-23.616-30.741-53.333
	c-0.035-8.161,1.056-16.287,3.243-24.149c-2.08-9.591-3.167-19.37-3.243-29.184C106.667,66.859,173.525,0,256,0
	s149.333,66.859,149.333,149.333c-0.076,9.814-1.163,19.593-3.243,29.184c2.186,7.862,3.277,15.989,3.243,24.149
	c0,29.717-13.12,52.267-30.741,53.333C355.2,320.235,308.544,362.667,256,362.667z M144.917,232.875
	c1.276-0.008,2.542,0.224,3.733,0.683c3.224,1.166,5.703,3.795,6.677,7.083C170.24,300.8,210.709,341.333,256,341.333
	S341.76,300.8,356.672,240.64c1.457-5.708,7.265-9.154,12.973-7.697c1.07,0.273,2.091,0.711,3.027,1.297
	c3.456,0.149,11.328-10.795,11.328-31.509c0.062-6.888-0.968-13.743-3.051-20.309c-0.607-1.823-0.71-3.776-0.299-5.653
	c2.115-8.995,3.239-18.195,3.349-27.435c0-70.692-57.308-128-128-128s-128,57.308-128,128c0.108,9.218,1.224,18.396,3.328,27.371
	c0.411,1.877,0.308,3.83-0.299,5.653c-2.076,6.567-3.098,13.422-3.029,20.309c0,20.651,8.021,32,10.667,32
	C140.545,233.504,142.708,232.884,144.917,232.875z"/>
<path d="M501.333,512H10.667C4.776,512,0,507.224,0,501.333v-15.659c0.033-59.02,37.387-111.564,93.12-130.987l54.869-19.093
	c4.019-1.388,8.478-0.256,11.349,2.88c6.699,7.317,13.888,16.277,21.461,25.749c22.272,27.819,49.92,62.443,75.2,62.443
	c25.28,0,52.928-34.624,75.179-62.443c7.552-9.472,14.741-18.432,21.461-25.749c2.871-3.136,7.33-4.268,11.349-2.88l54.869,19.093
	C474.6,374.103,511.964,426.649,512,485.675v15.659C512,507.224,507.224,512,501.333,512z M21.333,490.667h469.333v-4.992
	c-0.006-49.937-31.619-94.399-78.784-110.805l-48.128-16.747c-5.056,5.867-10.368,12.523-15.893,19.435
	C321.429,410.56,291.52,448,256,448s-65.429-37.44-91.861-70.4c-5.525-6.912-10.837-13.568-15.893-19.435l-48.128,16.747
	c-47.15,16.401-78.76,60.841-78.784,110.763V490.667z"/>
<path d="M362.667,192c-4.232-0.011-8.057-2.522-9.749-6.4c-5.07-11.742-8.695-24.056-10.795-36.672
	c-42.155-3.042-82.174-19.726-114.005-47.531c-1.95,3.403-4.354,6.525-7.147,9.28c-16.336,13.245-37.256,19.474-58.176,17.323
	c-3.812,17.249-4.757,35.009-2.795,52.565c0.421,5.876-4.002,10.98-9.878,11.401c-0.79,0.057-1.584,0.025-2.367-0.094
	c-8.885-1.271-17.842-1.983-26.816-2.133c-5.891,0-10.667-4.776-10.667-10.667c0-5.891,4.776-10.667,10.667-10.667
	c5.781,0,11.925,0.427,17.067,0.917c-2.506-19.615,0.95-39.529,9.92-57.152c3.967-3.932,9.45-5.941,15.019-5.504
	c15.195,1.598,30.458-2.316,43.008-11.029c5.243-5.675,7.914-13.262,7.381-20.971C213.333,68.776,218.109,64,224,64
	c5.891,0,10.667,4.776,10.667,10.667C235.904,85.333,289.387,128,352,128c5.891,0,10.667,4.776,10.667,10.667
	c0.651,10.773,3.013,21.373,6.997,31.403l20.544-1.685c5.843-0.408,10.946,3.918,11.499,9.749
	c0.479,5.866-3.884,11.012-9.749,11.499L363.541,192H362.667z"/>
<path d="M208,245.333c-20.619,0-37.333-16.715-37.333-37.333s16.715-37.333,37.333-37.333s37.333,16.715,37.333,37.333
	C245.31,228.609,228.609,245.31,208,245.333z M208,192c-8.837,0-16,7.163-16,16s7.163,16,16,16s16-7.163,16-16
	C223.988,199.168,216.832,192.012,208,192z"/>
<path d="M304,245.333c-20.619,0-37.333-16.715-37.333-37.333s16.715-37.333,37.333-37.333c20.619,0,37.333,16.715,37.333,37.333
	C341.31,228.609,324.609,245.31,304,245.333z M304,192c-8.837,0-16,7.163-16,16s7.163,16,16,16s16-7.163,16-16
	C319.988,199.168,312.832,192.012,304,192z"/>
<path d="M277.333,218.667c-1.854,0.005-3.678-0.472-5.291-1.387c-10.07-5.266-22.08-5.266-32.149,0
	c-5.146,2.868-11.642,1.021-14.51-4.125c-2.839-5.094-1.06-11.523,3.993-14.435c16.638-9.001,36.695-9.001,53.333,0
	c5.126,2.904,6.927,9.413,4.023,14.539C284.817,216.638,281.217,218.71,277.333,218.667z"/>
<path d="M192,170.667c-5.891,0-10.667-4.776-10.666-10.667c0-1.659,0.387-3.295,1.13-4.778l10.667-21.333
	c1.808-3.609,5.499-5.888,9.536-5.888h14.741l7.701-15.445c2.633-5.272,9.042-7.412,14.315-4.779
	c5.272,2.633,7.412,9.042,4.779,14.315l-10.667,21.333c-1.802,3.617-5.495,5.905-9.536,5.909h-14.741l-7.701,15.445
	C199.745,168.395,196.044,170.675,192,170.667z"/>
<path d="M181.333,213.333c-2.103-0.002-4.159-0.625-5.909-1.792l-32-21.333c-4.901-3.27-6.224-9.893-2.955-14.795
	c3.27-4.901,9.893-6.224,14.795-2.955l32,21.333c4.901,3.268,6.225,9.891,2.957,14.792
	C188.24,211.555,184.904,213.338,181.333,213.333z"/>
<path d="M330.667,213.333c-5.891-0.005-10.663-4.784-10.658-10.675c0.003-3.563,1.785-6.89,4.749-8.866l32-21.333
	c4.901-3.27,11.525-1.947,14.795,2.955s1.947,11.525-2.955,14.795l-32,21.333C334.841,212.712,332.777,213.336,330.667,213.333z"/>
<g>
</g>
<g>
</g>
<g>
</g>
<g>
</g>
<g>
</g>
<g>
</g>
<g>
</g>
<g>
</g>
<g>
</g>
<g>
</g>
<g>
</g>
<g>
</g>
<g>
</g>
<g>
</g>
<g>
</g>
</svg>
